<?xml version="1.0" standalone="no"?>
<!DOCTYPE svg PUBLIC "-//W3C//DTD SVG 20010904//EN"
 "http://www.w3.org/TR/2001/REC-SVG-20010904/DTD/svg10.dtd">
<svg version="1.0" xmlns="http://www.w3.org/2000/svg"
 width="500.000000pt" height="500.000000pt" viewBox="0 0 500.000000 500.000000"
 preserveAspectRatio="xMidYMid meet">

<g transform="translate(0.000000,500.000000) scale(0.100000,-0.100000)"
fill="#000000" stroke="none">
<path d="M0 2500 l0 -2500 2500 0 2500 0 0 2500 0 2500 -2500 0 -2500 0 0
-2500z m2638 1103 c-3 -71 -13 -94 -37 -85 -9 3 -12 1 -7 -6 5 -8 2 -10 -10
-5 -15 5 -14 7 2 16 25 14 48 37 36 37 -12 0 -9 73 3 82 6 5 5 8 -3 8 -8 0
-16 -9 -19 -20 -5 -18 -17 -24 -50 -23 -7 1 -10 -4 -6 -10 4 -6 1 -7 -7 -2 -8
5 -11 4 -6 -3 5 -8 15 -8 37 0 33 11 52 3 29 -13 -12 -8 -12 -12 -2 -16 9 -3
6 -10 -10 -24 -21 -19 -36 -55 -17 -43 5 3 9 3 9 1 0 -3 -24 -17 -52 -32 -29
-15 -61 -33 -72 -41 -19 -13 -46 -9 -46 8 0 6 6 8 14 5 9 -4 13 0 11 11 -1 11
-10 16 -25 14 -12 -1 -29 3 -36 9 -24 20 -15 -1 11 -27 14 -14 22 -30 19 -36
-4 -7 -2 -8 4 -4 7 4 12 5 12 2 0 -11 -59 -33 -71 -25 -18 11 -29 2 -22 -17 5
-13 1 -15 -18 -9 -17 4 -20 3 -10 -3 11 -8 9 -12 -9 -22 -14 -8 -20 -8 -16 -1
4 6 1 9 -7 5 -8 -3 -17 2 -21 12 -6 16 -8 15 -27 -4 -11 -12 -26 -22 -34 -22
-8 0 -16 -4 -19 -9 -9 -14 48 1 60 17 9 12 12 12 23 -2 11 -13 8 -18 -19 -35
l-32 -19 -59 31 c-44 23 -56 34 -48 43 19 24 99 65 111 58 6 -4 8 -3 5 3 -8
12 139 97 153 88 6 -4 9 -2 8 4 -2 6 7 17 18 24 120 69 159 91 162 89 1 -1 21
11 44 28 22 16 43 30 45 30 3 0 3 -30 1 -67z m218 -194 c1 -46 -7 -62 -21 -39
-3 6 -12 10 -18 10 -7 0 1 -9 17 -19 l29 -19 -47 -31 c-28 -17 -55 -27 -64
-24 -10 4 -14 2 -9 -2 10 -11 -70 -58 -85 -49 -7 5 -8 3 -3 -6 6 -10 4 -12
-11 -6 -10 4 -15 4 -11 0 4 -4 -8 -17 -26 -30 -29 -20 -34 -21 -49 -6 -16 14
-18 14 -18 -2 0 -9 5 -14 10 -11 6 3 10 2 10 -3 0 -5 -24 -22 -52 -37 -43 -23
-50 -25 -35 -8 9 11 17 23 17 26 0 11 -48 8 -55 -3 -3 -5 1 -10 10 -10 9 0 14
-4 10 -9 -6 -10 -28 0 -78 33 -27 19 -25 31 8 36 6 1 17 7 25 15 8 7 33 22 55
34 22 12 63 36 90 52 28 16 62 35 78 42 15 6 27 15 27 19 0 4 7 4 17 1 10 -4
14 -2 10 4 -6 10 154 104 163 96 3 -3 6 -27 6 -54z m-426 47 c0 -2 -7 -7 -16
-10 -8 -3 -12 -2 -9 4 6 10 25 14 25 6z m-585 -171 c0 -38 28 -55 53 -32 10
10 22 13 28 8 5 -5 41 -26 79 -46 39 -21 84 -47 100 -59 17 -12 42 -27 58 -34
15 -6 27 -16 27 -22 0 -5 3 -9 8 -8 16 4 83 -32 77 -42 -3 -5 -11 -10 -16 -10
-6 0 -8 4 -4 9 3 5 2 12 -3 15 -5 3 -8 -12 -8 -32 1 -26 -3 -37 -14 -38 -8 -1
-19 -2 -25 -3 -11 -2 35 -40 49 -41 6 0 1 6 -9 14 -18 13 -18 14 3 27 17 11
19 16 9 28 -10 12 -8 13 11 7 13 -4 28 -3 35 2 8 7 25 1 57 -20 25 -17 45 -30
45 -29 0 2 12 -3 27 -10 26 -11 30 -29 7 -29 -6 0 -7 5 -3 11 4 8 0 8 -15 0
-11 -7 -21 -14 -21 -17 0 -3 4 -2 10 1 5 3 19 1 31 -6 17 -9 20 -8 14 2 -6 9
0 11 23 6 26 -5 46 2 119 47 73 45 91 52 108 43 18 -9 18 -8 7 6 -11 13 -10
16 10 22 12 4 28 14 36 21 7 8 25 12 39 9 14 -2 39 3 54 11 32 16 34 20 17 30
-7 4 -8 3 -4 -4 4 -7 3 -12 -3 -12 -18 0 -21 18 -3 26 9 4 20 7 24 6 3 -1 12
5 18 13 7 8 21 15 32 15 10 0 16 4 13 10 -4 6 1 7 11 3 11 -4 15 -2 11 4 -4 6
4 14 18 17 14 4 25 11 25 16 0 5 15 7 33 5 26 -4 28 -3 7 3 l-25 8 23 13 c12
6 28 9 34 5 6 -4 9 -3 5 2 -3 5 21 24 52 41 l58 32 0 -35 c0 -27 -4 -34 -16
-29 -13 4 -12 2 2 -9 9 -7 17 -20 17 -29 0 -11 -6 -15 -17 -11 -17 5 -17 5 -1
-8 15 -13 12 -17 -28 -41 -25 -15 -42 -22 -38 -15 4 7 -5 0 -21 -15 -19 -18
-36 -26 -48 -23 -10 2 -16 2 -13 -1 9 -9 -57 -54 -72 -48 -7 2 -15 -2 -18 -10
-9 -22 -90 -66 -111 -59 -12 4 -14 3 -6 -3 9 -6 -9 -21 -60 -50 -71 -40 -102
-48 -122 -32 -6 4 -17 4 -25 -1 -12 -7 -12 -12 -2 -22 9 -9 12 -9 12 0 0 7 5
12 11 12 5 0 7 -5 3 -11 -4 -8 0 -8 15 0 11 7 21 9 21 6 0 -3 -12 -11 -27 -18
-16 -7 -49 -24 -74 -39 -39 -24 -50 -26 -79 -18 -18 5 -36 8 -38 5 -5 -5 12
-12 43 -17 11 -2 15 -6 10 -10 -15 -9 -76 22 -68 35 3 6 1 7 -5 3 -15 -9 -123
55 -115 68 3 5 1 6 -5 2 -11 -6 -51 9 -62 24 -3 3 -30 19 -60 34 -57 29 -91
55 -57 43 11 -4 16 -3 12 4 -4 6 -13 8 -20 5 -11 -4 -95 28 -95 37 0 1 12 3
27 4 19 1 22 -1 12 -8 -18 -11 -1 -10 26 1 17 7 17 9 3 9 -15 1 -28 21 -14 21
16 0 36 -14 36 -26 0 -8 5 -14 11 -14 5 0 7 5 4 10 -3 6 -2 10 3 10 16 0 23
30 12 48 -9 14 -10 13 -5 -5 6 -22 -16 -46 -23 -25 -2 7 -11 12 -20 13 -14 0
-13 2 3 9 13 6 15 9 5 9 -8 0 -22 -4 -30 -9 -8 -5 -11 -10 -6 -10 5 0 3 -7 -4
-15 -16 -19 -56 -13 -100 13 -19 12 -39 22 -45 22 -6 0 -10 -35 -10 -84 0 -46
3 -82 8 -79 4 2 7 -1 7 -6 0 -6 3 -10 8 -9 13 4 52 -13 52 -23 0 -5 3 -8 8 -7
4 1 27 -8 51 -21 42 -22 44 -24 26 -37 -10 -8 -14 -14 -9 -14 6 0 15 5 21 11
12 12 41 1 62 -25 10 -12 9 -14 -8 -9 -12 3 -21 9 -21 14 0 5 -5 9 -11 9 -8 0
-8 -5 1 -15 7 -8 18 -15 25 -15 6 0 20 -9 30 -20 10 -11 23 -20 29 -19 6 0 5
3 -3 6 -11 5 -11 7 0 15 11 8 10 9 -3 5 -18 -6 -30 1 -22 14 3 5 20 2 37 -8
56 -28 109 -64 104 -70 -3 -2 -17 3 -31 13 -28 18 -41 13 -41 -14 0 -9 -6 -16
-14 -14 -9 2 -12 -4 -8 -18 4 -17 2 -20 -14 -15 -31 10 -22 -2 10 -13 23 -8
32 -7 42 4 10 12 9 13 -5 8 -22 -8 -20 8 4 36 16 18 23 21 32 12 9 -9 9 -12
-2 -12 -7 0 -11 -3 -8 -6 4 -3 15 -1 26 5 23 12 55 4 45 -12 -3 -6 -1 -7 5 -3
16 10 54 -12 46 -26 -4 -6 -3 -8 4 -4 6 3 30 -3 53 -15 41 -22 42 -22 78 -3
20 10 38 22 41 25 3 3 20 14 38 23 32 17 43 11 20 -12 -8 -8 -8 -12 -1 -12 6
0 16 7 23 15 7 8 18 15 24 15 6 0 4 -5 -4 -10 -8 -5 -10 -10 -5 -10 17 0 39
18 41 34 1 9 -2 14 -7 10 -5 -3 -7 -10 -4 -15 4 -5 2 -9 -4 -9 -5 0 -13 5 -16
10 -4 6 -11 8 -16 5 -5 -4 -9 -4 -9 -2 0 12 91 57 102 51 7 -4 8 -3 4 4 -3 6
2 16 13 21 28 15 38 14 17 -2 -16 -12 -16 -15 -3 -26 12 -9 17 -9 23 0 4 7 3
9 -4 5 -6 -3 -13 -2 -17 4 -3 5 0 10 7 10 8 0 23 7 34 16 19 15 19 16 -1 10
-17 -5 -16 -3 5 14 24 19 36 24 53 21 4 0 7 4 7 9 0 6 12 16 28 23 15 6 42 22
61 35 19 12 41 20 48 18 7 -3 15 0 19 6 4 7 3 8 -4 4 -7 -4 -12 -5 -12 -2 0 3
13 12 29 21 39 20 49 3 14 -24 -16 -11 -22 -21 -14 -21 7 0 22 11 33 25 11 14
25 25 33 25 7 0 18 7 25 15 9 10 9 15 1 15 -6 0 -11 -4 -11 -9 0 -5 -9 -11
-21 -14 -28 -8 -8 16 37 43 l35 20 -3 -67 c-3 -76 -13 -96 -41 -81 -20 10 -30
6 -33 -17 -1 -9 2 -12 8 -9 7 4 8 2 4 -4 -4 -7 -12 -12 -18 -12 -5 0 -23 -9
-39 -21 -16 -11 -29 -18 -29 -14 0 3 -15 -5 -33 -19 -17 -13 -43 -30 -57 -36
-26 -12 -75 -40 -176 -100 -33 -19 -61 -35 -64 -35 -3 0 -11 -4 -18 -9 -30
-18 -23 7 9 34 31 27 32 29 12 30 -13 0 -23 -6 -23 -14 0 -8 -7 -17 -16 -20
-10 -4 -14 -14 -11 -26 6 -25 -24 -44 -56 -36 -12 3 -16 3 -9 0 6 -3 12 -9 12
-14 0 -13 -26 -19 -41 -8 -11 7 -9 8 6 3 15 -5 17 -3 8 6 -16 16 -38 2 -23
-16 8 -10 8 -15 -1 -21 -8 -4 -9 -3 -5 4 4 7 3 12 -3 12 -5 0 -18 3 -28 6 -15
6 -16 4 -5 -7 16 -18 15 -29 -4 -29 -8 0 -12 -5 -9 -10 10 -16 -29 -6 -61 15
-16 11 -45 28 -64 37 -19 10 -42 22 -50 27 -54 35 -171 101 -179 101 -6 0 -13
5 -17 12 -4 6 -3 9 2 5 5 -3 10 14 10 38 1 31 -3 46 -14 50 -12 4 -13 3 -2
-10 10 -12 10 -15 -1 -15 -11 0 -11 -3 1 -11 12 -9 13 -12 1 -16 -10 -4 -10
-7 -1 -13 8 -5 7 -9 -5 -13 -11 -5 -14 -3 -9 5 5 8 2 9 -9 5 -10 -3 -17 -3
-17 2 0 5 -11 12 -24 15 -14 3 -38 17 -54 31 -16 13 -32 21 -36 17 -4 -4 -6
-1 -4 7 1 7 -3 16 -11 19 -9 3 -11 0 -6 -9 5 -8 0 -6 -12 4 -11 9 -22 17 -26
17 -16 0 -128 75 -117 78 7 3 16 -2 21 -9 6 -11 9 -10 14 3 4 10 13 15 23 11
14 -4 14 -3 3 5 -7 5 -27 8 -42 5 l-29 -4 0 210 0 210 23 -8 c15 -6 22 -16 22
-36z m55 -15 c0 -16 -19 -21 -37 -10 -16 11 -16 11 -1 6 10 -3 20 -1 23 4 4 6
-3 10 -15 10 -12 0 -18 5 -15 10 7 12 45 -5 45 -20z m946 -168 c-9 -9 -56 -11
-51 -2 3 5 13 6 22 3 11 -4 14 -3 9 5 -5 8 -2 10 9 6 9 -4 14 -9 11 -12z
m-546 -62 c0 -5 -7 -10 -16 -10 -8 0 -12 5 -9 10 3 6 10 10 16 10 5 0 9 -4 9
-10z m855 -170 c3 -6 -1 -7 -9 -4 -18 7 -21 14 -7 14 6 0 13 -4 16 -10z
m-2344 -610 l30 -30 -2 -144 c-2 -200 -14 -216 -150 -216 l-49 0 0 210 0 210
71 0 c65 0 73 -2 100 -30z m277 -45 c-3 -77 -2 -79 40 -75 26 2 27 -3 6 -24
-9 -10 -11 -16 -4 -16 14 0 40 25 40 38 0 6 -7 13 -15 16 -13 4 -15 19 -13 68
l3 63 35 0 35 0 0 -205 0 -205 -35 0 -35 0 -3 84 c-2 59 1 87 10 92 8 5 3 10
-16 15 -15 3 -31 3 -36 -2 -5 -5 -10 -50 -12 -99 l-3 -90 -32 -3 -33 -3 0 204
c0 112 3 207 7 210 3 4 19 7 35 7 l30 0 -4 -75z m481 49 c25 -32 29 -119 7
-150 -13 -17 -14 -15 -6 20 5 21 5 35 1 30 -5 -5 -11 -23 -14 -40 -5 -24 -1
-36 12 -49 16 -14 19 -30 18 -108 l-2 -92 -35 0 -35 0 0 84 c0 72 2 84 17 87
10 1 22 -5 27 -13 7 -13 9 -12 13 4 6 23 -17 49 -25 28 -6 -14 -18 -14 -50 0
-10 4 -21 5 -24 2 -3 -4 -5 -49 -4 -102 l2 -95 -35 0 -36 0 0 209 0 208 74 2
c69 2 75 0 95 -25z m263 -141 c2 -93 7 -176 12 -185 6 -13 4 -18 -8 -18 -9 0
-16 -4 -16 -9 0 -16 31 -21 53 -9 20 11 20 13 4 16 -14 3 -16 7 -7 17 8 10 11
70 10 184 l-1 171 38 -4 38 -3 0 -164 c0 -138 -2 -164 -15 -165 -8 -1 -21 -2
-27 -3 -7 0 -13 -5 -13 -10 0 -4 11 -7 25 -6 30 4 31 -5 4 -36 -16 -19 -30
-24 -68 -24 -48 0 -71 13 -84 47 -3 10 -2 20 4 23 5 4 6 11 3 17 -4 6 -10 5
-15 -3 -5 -8 -9 58 -9 159 l0 172 34 0 35 0 3 -167z m463 144 c31 -26 43 -89
23 -126 -17 -33 -36 -38 -33 -9 1 13 0 15 -2 5 -2 -9 -10 -15 -16 -11 -7 3 2
-6 18 -21 17 -14 29 -30 28 -35 -2 -6 2 -10 8 -10 8 0 10 -23 7 -71 -7 -97
-21 -111 -119 -113 l-74 -1 -3 195 c-1 107 0 200 2 207 4 9 27 13 70 13 53 0
70 -4 91 -23z m348 17 c3 -4 2 -15 -4 -25 -7 -14 -7 -19 2 -17 6 2 12 -7 14
-19 1 -15 -4 -23 -14 -23 -14 -1 -14 -2 0 -13 9 -7 19 -21 22 -32 3 -11 5 -4
6 18 1 26 5 36 13 31 13 -8 3 12 -20 39 -20 23 -6 35 16 14 14 -15 18 -41 21
-148 3 -117 1 -132 -15 -144 -10 -7 -22 -11 -25 -9 -4 2 -14 -5 -24 -16 -10
-11 -24 -20 -32 -20 -7 0 -13 -5 -13 -11 0 -6 9 -8 20 -4 12 4 20 2 20 -6 0
-8 4 -8 15 1 10 8 13 21 9 34 -6 21 -6 21 10 1 l16 -20 -6 20 c-5 15 -4 17 5
9 6 -6 9 -17 6 -25 -8 -20 -58 -49 -85 -49 -31 0 -76 29 -90 58 -17 38 -12
295 7 321 15 23 38 29 30 9 -2 -7 -11 -12 -18 -10 -11 3 -12 1 -1 -9 16 -17
16 -35 -1 -21 -9 8 -12 -1 -13 -41 0 -35 1 -40 3 -15 3 31 9 39 29 44 18 5 22
10 15 17 -18 18 -12 31 7 16 14 -11 15 -11 5 1 -21 22 -15 35 7 15 17 -15 21
-16 34 -2 19 18 5 26 -37 22 -15 -2 -27 1 -27 6 0 10 83 13 93 3z m417 -172
c-1 -97 -6 -184 -11 -194 -26 -49 -111 -58 -155 -18 -21 21 -24 32 -24 94 l0
71 32 -1 c33 -1 33 -1 38 -60 4 -51 8 -59 25 -59 19 0 20 8 23 171 l2 171 36
1 35 1 -1 -177z m194 136 l-2 -43 6 40 c8 48 32 54 43 11 9 -31 6 -68 -6 -101
l-8 -20 16 20 c19 23 22 14 6 -18 -9 -20 -9 -20 4 -5 8 10 18 14 22 10 5 -4 5
-2 2 4 -4 7 -2 36 4 65 6 30 11 59 12 65 1 14 67 14 67 -1 0 -23 -34 -154 -39
-150 -3 1 -7 -9 -8 -23 -1 -15 -5 -73 -9 -130 l-7 -103 -31 3 -31 3 -1 70 c0
39 -3 75 -6 80 -14 25 -17 67 -7 88 11 19 10 20 -3 10 -13 -11 -17 -5 -28 44
-18 84 -21 123 -6 123 7 0 11 -15 10 -42z m507 13 l29 -29 0 -147 c0 -109 -3
-144 -12 -139 -7 5 -9 2 -6 -7 10 -27 -28 -61 -74 -65 -38 -3 -41 -2 -25 10 9
7 17 17 17 21 0 4 -7 2 -15 -5 -9 -7 -19 -9 -23 -5 -4 4 -1 10 6 12 6 3 12 9
12 15 0 6 -7 4 -17 -3 -15 -13 -16 -12 -11 8 7 27 -2 35 -22 22 -12 -7 -12 -9
-1 -9 7 0 11 -6 7 -15 -3 -8 -1 -15 3 -15 5 0 11 -7 15 -15 10 -28 -12 -15
-33 19 -19 30 -21 49 -21 175 l0 143 29 29 c23 23 38 29 71 29 33 0 48 -6 71
-29z m228 17 c11 -11 12 -10 7 0 -6 10 7 12 58 11 37 -1 69 -6 72 -10 3 -5 -2
-9 -10 -9 -9 0 -16 -4 -16 -10 0 -5 6 -7 14 -4 10 4 14 -1 13 -15 -1 -15 -8
-21 -24 -21 l-23 0 0 -175 0 -175 -40 0 -40 0 0 175 0 175 -23 0 c-16 0 -23 6
-24 20 -2 17 3 19 25 15 l27 -5 -28 13 c-15 7 -24 16 -21 20 10 10 18 9 33 -5z
m371 -200 l0 -209 -32 4 -33 3 -3 207 -2 206 35 -1 35 -1 0 -209z"/>
<path d="M2496 3577 c-16 -12 -16 -13 2 -13 10 0 19 6 19 13 0 7 -1 13 -2 13
-1 0 -9 -6 -19 -13z"/>
<path d="M2427 3535 c-24 -17 -34 -30 -30 -40 4 -12 8 -13 19 -4 11 9 21 9 42
-1 15 -8 33 -12 41 -11 7 1 10 -2 6 -8 -3 -7 0 -8 9 -5 9 3 16 7 16 9 0 8
-101 34 -114 29 -23 -9 -20 3 5 16 15 8 24 8 33 0 10 -8 15 -6 20 6 12 31 -9
34 -47 9z m43 5 c0 -5 -5 -10 -11 -10 -5 0 -7 5 -4 10 3 6 8 10 11 10 2 0 4
-4 4 -10z"/>
<path d="M2540 3550 c0 -5 7 -10 16 -10 8 0 12 5 9 10 -3 6 -10 10 -16 10 -5
0 -9 -4 -9 -10z"/>
<path d="M2300 3435 c-9 -11 -22 -14 -41 -10 -28 6 -48 -8 -28 -21 7 -4 9 -3
5 4 -4 7 8 10 37 8 36 -3 43 0 44 15 2 23 -1 24 -17 4z"/>
<path d="M2300 3390 c-9 -6 -10 -10 -3 -10 6 0 15 5 18 10 8 12 4 12 -15 0z"/>
<path d="M2140 3370 c-13 -9 -13 -10 0 -10 13 0 13 -1 0 -11 -12 -8 -12 -10
-1 -7 8 2 15 12 17 21 3 20 3 19 -16 7z"/>
<path d="M2100 3336 c0 -2 7 -7 16 -10 8 -3 12 -2 9 4 -6 10 -25 14 -25 6z"/>
<path d="M2794 3427 c-36 -19 -40 -25 -33 -45 10 -27 33 -19 26 9 -3 11 -2 17
3 14 4 -3 11 2 14 11 4 10 13 13 28 9 16 -4 19 -3 9 3 -11 8 -11 10 0 15 8 3
10 5 4 5 -5 0 -29 -9 -51 -21z"/>
<path d="M2810 3406 c0 -2 7 -6 15 -10 8 -3 15 -1 15 4 0 6 -7 10 -15 10 -8 0
-15 -2 -15 -4z"/>
<path d="M2705 3380 c-3 -5 -3 -10 2 -11 4 0 -10 -8 -32 -18 -39 -17 -39 -18
-17 -30 16 -8 22 -9 20 -1 -2 7 7 19 20 27 21 15 22 15 19 -8 -2 -12 -9 -25
-15 -27 -19 -6 -14 -21 7 -19 11 0 19 4 18 7 0 3 3 16 7 29 6 18 4 26 -8 33
-9 5 -14 13 -11 19 4 5 4 9 1 9 -3 0 -8 -4 -11 -10z"/>
<path d="M2817 3343 c-12 -12 -7 -22 8 -17 8 4 15 10 15 15 0 11 -14 12 -23 2z"/>
<path d="M2620 3326 c0 -2 8 -10 18 -17 15 -13 16 -12 3 4 -13 16 -21 21 -21
13z"/>
<path d="M2746 3312 c-2 -4 6 -7 20 -7 32 2 39 10 9 13 -13 1 -26 -2 -29 -6z"/>
<path d="M2600 3299 c0 -5 5 -7 10 -4 6 3 10 8 10 11 0 2 -4 4 -10 4 -5 0 -10
-5 -10 -11z"/>
<path d="M2546 3279 c4 -7 44 0 44 7 0 2 -11 3 -24 2 -14 -1 -23 -5 -20 -9z"/>
<path d="M2617 3277 c-8 -6 -6 -7 7 -3 13 5 17 2 12 -9 -4 -12 -2 -13 14 -2
11 6 20 14 20 17 0 9 -40 7 -53 -3z"/>
<path d="M2530 3261 c8 -5 31 -11 50 -15 24 -4 28 -3 15 2 -31 14 -83 24 -65
13z"/>
<path d="M2480 3242 c0 -7 -5 -10 -12 -6 -7 5 -8 3 -3 -6 5 -8 1 -18 -10 -26
-10 -8 -16 -16 -13 -20 11 -11 56 44 47 58 -7 10 -9 10 -9 0z"/>
<path d="M2586 3208 c5 -8 1 -9 -12 -4 -14 5 -16 4 -8 -4 12 -12 47 -3 38 11
-3 5 -10 9 -15 9 -6 0 -7 -5 -3 -12z"/>
<path d="M2405 3200 c-4 -6 -10 -8 -15 -5 -20 12 -18 -14 3 -31 21 -19 21 -19
7 0 -14 18 -13 18 10 12 19 -6 22 -5 10 3 -13 10 -13 12 0 21 9 6 10 10 3 10
-6 0 -15 -5 -18 -10z"/>
<path d="M1811 3294 c0 -11 3 -14 6 -6 3 7 2 16 -1 19 -3 4 -6 -2 -5 -13z"/>
<path d="M3142 3285 c-16 -8 -20 -15 -12 -20 6 -4 12 -5 13 -4 2 2 9 12 16 22
15 20 14 20 -17 2z"/>
<path d="M3100 3266 c0 -2 8 -10 18 -17 15 -13 16 -12 3 4 -13 16 -21 21 -21
13z"/>
<path d="M3150 3240 c0 -5 5 -10 10 -10 6 0 10 5 10 10 0 6 -4 10 -10 10 -5 0
-10 -4 -10 -10z"/>
<path d="M3132 3216 c7 -8 15 -12 17 -11 5 6 -10 25 -20 25 -5 0 -4 -6 3 -14z"/>
<path d="M1954 3194 c-17 -14 -17 -15 -1 -10 10 3 30 6 43 6 14 0 22 4 19 10
-9 15 -39 12 -61 -6z"/>
<path d="M3112 3188 c2 -6 10 -13 16 -14 7 -1 8 0 2 3 -5 2 -8 9 -4 14 3 5 0
9 -6 9 -7 0 -10 -5 -8 -12z"/>
<path d="M2994 3182 c-8 -5 -7 -11 4 -22 14 -13 15 -12 9 2 -3 9 -1 19 6 22 7
2 8 5 2 5 -5 0 -15 -3 -21 -7z"/>
<path d="M2930 3150 c0 -5 5 -10 11 -10 5 0 7 5 4 10 -3 6 -8 10 -11 10 -2 0
-4 -4 -4 -10z"/>
<path d="M1925 3140 c-3 -6 1 -7 9 -4 18 7 21 14 7 14 -6 0 -13 -4 -16 -10z"/>
<path d="M1964 3134 c-18 -14 -18 -15 6 -10 14 3 19 3 13 0 -17 -7 -17 -21 0
-27 8 -3 12 5 12 24 1 33 -4 35 -31 13z"/>
<path d="M2060 3141 c0 -5 7 -12 16 -15 10 -4 13 -2 8 6 -5 8 -2 9 10 5 10 -4
15 -3 11 3 -8 12 -45 13 -45 1z"/>
<path d="M2970 3135 c7 -8 22 -15 34 -15 20 1 20 2 -4 15 -33 19 -46 19 -30 0z"/>
<path d="M3044 3138 c10 -6 22 -6 26 -2 5 5 -3 10 -18 11 -22 1 -24 0 -8 -9z"/>
<path d="M2035 3110 c-3 -5 -2 -10 4 -10 5 0 13 5 16 10 3 6 2 10 -4 10 -5 0
-13 -4 -16 -10z"/>
<path d="M2945 3107 c-11 -7 -25 -18 -31 -26 -6 -8 -15 -11 -20 -8 -6 3 -10
-5 -10 -18 0 -13 4 -21 8 -19 5 3 6 10 3 15 -8 12 8 12 23 -1 9 -7 9 -7 3 1
-10 12 9 39 27 39 6 0 12 7 16 15 6 17 7 17 -19 2z"/>
<path d="M2985 3100 c-3 -5 -1 -10 4 -10 6 0 11 5 11 10 0 6 -2 10 -4 10 -3 0
-8 -4 -11 -10z"/>
<path d="M2815 3050 c3 -5 10 -10 16 -10 5 0 9 5 9 10 0 6 -7 10 -16 10 -8 0
-12 -4 -9 -10z"/>
<path d="M2778 3026 c-21 -15 -13 -26 16 -25 12 0 16 3 9 5 -7 3 -9 12 -6 20
6 17 3 17 -19 0z"/>
<path d="M2698 3003 c7 -3 16 -2 19 1 4 3 -2 6 -13 5 -11 0 -14 -3 -6 -6z"/>
<path d="M2630 2990 c0 -5 -17 -18 -37 -29 -21 -11 -33 -20 -28 -21 16 0 75
39 75 50 0 5 -2 10 -5 10 -3 0 -5 -4 -5 -10z"/>
<path d="M2297 2975 c-14 -10 -15 -14 -3 -18 8 -3 17 1 20 10 9 22 4 24 -17 8z"/>
<path d="M2722 2966 c-1 -18 0 -18 21 0 12 10 23 20 25 20 2 1 -7 1 -20 0 -16
0 -25 -8 -26 -20z"/>
<path d="M2790 2980 c-9 -6 -10 -10 -3 -10 6 0 15 5 18 10 8 12 4 12 -15 0z"/>
<path d="M3165 2960 c-3 -5 1 -10 9 -10 9 0 16 5 16 10 0 6 -4 10 -9 10 -6 0
-13 -4 -16 -10z"/>
<path d="M2330 2940 c0 -5 5 -10 10 -10 6 0 10 5 10 10 0 6 -4 10 -10 10 -5 0
-10 -4 -10 -10z"/>
<path d="M2613 2940 c-23 -9 -32 -30 -14 -30 10 0 41 28 41 36 0 5 1 5 -27 -6z"/>
<path d="M2380 2923 c6 -3 3 -12 -8 -21 -9 -10 -13 -14 -8 -9 14 10 28 9 22
-2 -8 -12 21 -34 34 -26 17 11 11 23 -9 18 -14 -4 -18 0 -17 18 0 12 -5 23
-12 25 -7 1 -8 0 -2 -3z"/>
<path d="M1900 2911 c13 -10 13 -12 0 -22 -13 -9 -13 -10 0 -6 8 2 15 10 15
17 0 7 -7 15 -15 17 -13 4 -13 3 0 -6z"/>
<path d="M1960 2911 c0 -5 11 -18 25 -29 13 -11 21 -23 17 -27 -4 -5 -2 -6 3
-3 6 3 19 8 30 12 19 7 19 8 2 17 -9 6 -22 7 -27 4 -6 -3 -10 -2 -10 2 0 5 -9
14 -20 21 -11 7 -20 8 -20 3z"/>
<path d="M2992 2894 c-22 -15 -22 -35 1 -33 8 0 8 2 -1 6 -10 4 -8 9 7 20 12
8 26 11 33 7 7 -4 8 -3 4 4 -10 16 -17 15 -44 -4z"/>
<path d="M2569 2883 c-13 -15 -12 -15 9 -4 23 12 28 21 13 21 -5 0 -15 -7 -22
-17z"/>
<path d="M1858 2873 c7 -3 16 -2 19 1 4 3 -2 6 -13 5 -11 0 -14 -3 -6 -6z"/>
<path d="M2580 2865 c-14 -8 -20 -14 -14 -15 5 0 19 7 30 15 24 18 16 19 -16
0z"/>
<path d="M3019 2871 c8 -5 9 -10 2 -12 -6 -2 -7 -10 -2 -17 4 -7 15 -10 24 -7
14 6 14 8 -1 26 -9 10 -21 19 -27 19 -5 0 -4 -4 4 -9z"/>
<path d="M2490 2855 c-18 -21 -3 -32 16 -13 10 9 12 18 6 22 -5 3 -15 -1 -22
-9z"/>
<path d="M2954 2862 c3 -6 -3 -14 -14 -17 -30 -9 -21 -25 23 -40 20 -7 34 -8
31 -3 -4 6 2 8 14 4 11 -4 23 -2 27 4 3 6 11 7 17 4 7 -4 8 -2 4 5 -6 9 -11 9
-21 1 -18 -15 -59 5 -48 23 4 7 -2 5 -12 -3 -17 -14 -18 -13 -12 2 3 10 1 20
-5 24 -6 4 -8 3 -4 -4z"/>
<path d="M2028 2843 c7 -3 16 -2 19 1 4 3 -2 6 -13 5 -11 0 -14 -3 -6 -6z"/>
<path d="M1950 2829 c0 -5 5 -7 10 -4 6 3 10 8 10 11 0 2 -4 4 -10 4 -5 0 -10
-5 -10 -11z"/>
<path d="M1993 2825 c0 -8 4 -12 9 -9 5 3 6 10 3 15 -9 13 -12 11 -12 -6z"/>
<path d="M2528 2833 c7 -3 16 -2 19 1 4 3 -2 6 -13 5 -11 0 -14 -3 -6 -6z"/>
<path d="M2044 2816 c15 -9 32 -13 37 -10 5 3 9 0 9 -5 0 -6 8 -11 18 -11 15
1 15 2 -3 12 -11 7 -24 13 -30 15 -5 1 -21 5 -35 8 -23 6 -23 6 4 -9z"/>
<path d="M2028 2782 c9 -10 19 -17 21 -16 6 5 -20 34 -30 34 -5 0 -1 -8 9 -18z"/>
<path d="M2842 2781 c-11 -6 -10 -10 4 -15 9 -4 22 -2 28 4 8 8 6 9 -8 4 -13
-5 -17 -4 -12 4 8 14 6 15 -12 3z"/>
<path d="M2963 2775 c0 -7 6 -11 14 -8 7 3 13 6 13 8 0 2 -6 5 -13 8 -8 3 -14
-1 -14 -8z"/>
<path d="M2066 2764 c-5 -14 -4 -15 9 -4 17 14 19 20 6 20 -5 0 -12 -7 -15
-16z"/>
<path d="M2227 2769 c7 -7 15 -10 18 -7 3 3 -2 9 -12 12 -14 6 -15 5 -6 -5z"/>
<path d="M2096 2757 c-18 -13 -18 -14 -1 -21 10 -3 20 -4 23 -1 3 3 0 5 -8 5
-10 0 -10 3 0 15 15 19 10 19 -14 2z"/>
<path d="M2912 2755 c-17 -19 -1 -19 24 0 14 11 15 14 4 14 -8 0 -21 -6 -28
-14z"/>
<path d="M2818 2743 c-10 -3 -18 -9 -18 -14 0 -12 37 -12 45 0 7 12 -5 19 -27
14z"/>
<path d="M2320 2680 c6 -11 21 -20 33 -20 22 0 22 1 -3 20 -32 25 -43 25 -30
0z"/>
<path d="M2270 2654 c-25 -15 -25 -15 -1 -8 16 4 21 3 17 -5 -5 -7 -1 -9 8 -5
9 3 16 2 16 -4 0 -6 -5 -12 -12 -14 -8 -3 -7 -6 3 -10 12 -5 15 1 15 22 0 21
-4 26 -14 22 -10 -3 -13 -1 -8 6 9 15 7 15 -24 -4z"/>
<path d="M2590 2659 c0 -5 5 -7 10 -4 6 3 10 8 10 11 0 2 -4 4 -10 4 -5 0 -10
-5 -10 -11z"/>
<path d="M2729 2633 c-13 -17 -13 -17 6 -3 11 8 22 16 24 17 2 2 0 3 -6 3 -6
0 -17 -8 -24 -17z"/>
<path d="M2430 2630 c-8 -5 -10 -10 -5 -10 6 0 17 5 25 10 8 5 11 10 5 10 -5
0 -17 -5 -25 -10z"/>
<path d="M2455 2616 c-17 -12 -14 -13 26 -13 24 0 37 2 29 5 -8 3 -20 9 -26
13 -6 5 -18 3 -29 -5z"/>
<path d="M2534 2623 c15 -4 16 -7 5 -15 -11 -7 -11 -9 -1 -6 20 5 16 23 -5 25
-15 2 -15 1 1 -4z"/>
<path d="M2625 2620 c-3 -5 -1 -10 5 -10 7 0 10 -7 7 -14 -4 -10 -1 -13 8 -9
11 4 12 10 4 24 -11 22 -15 23 -24 9z"/>
<path d="M2360 2579 c0 -5 5 -7 10 -4 6 3 10 8 10 11 0 2 -4 4 -10 4 -5 0 -10
-5 -10 -11z"/>
<path d="M2383 2567 c-3 -6 -1 -7 5 -3 5 3 12 1 14 -6 3 -8 9 -8 24 0 21 12
20 12 -14 16 -13 2 -26 -2 -29 -7z"/>
<path d="M2463 2528 c14 -22 23 -23 30 -4 4 9 -3 16 -18 18 -20 4 -22 3 -12
-14z"/>
<path d="M729 2269 c-10 -6 -7 -9 14 -9 29 0 35 5 14 13 -8 3 -20 1 -28 -4z"/>
<path d="M790 2256 c0 -2 8 -10 18 -17 15 -13 16 -12 3 4 -13 16 -21 21 -21
13z"/>
<path d="M760 2240 c0 -5 5 -10 11 -10 7 0 9 -10 5 -27 -5 -23 -4 -25 4 -10 6
9 15 15 21 12 17 -11 9 11 -11 28 -23 20 -30 21 -30 7z"/>
<path d="M685 2219 c-7 -20 0 -37 10 -27 3 3 7 15 10 27 5 27 -12 28 -20 0z"/>
<path d="M727 2223 c-4 -3 -7 -69 -7 -145 0 -135 1 -139 21 -136 19 3 20 9 20
135 0 73 -3 137 -6 143 -7 12 -19 13 -28 3z"/>
<path d="M774 2070 c0 -58 1 -81 3 -52 2 28 2 76 0 105 -2 28 -3 5 -3 -53z"/>
<path d="M822 2145 c0 -16 2 -22 5 -12 2 9 2 23 0 30 -3 6 -5 -1 -5 -18z"/>
<path d="M793 1957 c-16 -16 -18 -25 -10 -32 9 -8 17 -5 30 7 9 10 13 18 7 18
-5 0 -7 7 -4 15 8 20 3 18 -23 -8z"/>
<path d="M657 1933 c-4 -3 -7 -16 -7 -27 1 -19 2 -19 11 -3 5 9 17 17 24 17 8
0 15 5 15 10 0 11 -33 14 -43 3z"/>
<path d="M756 1907 c3 -10 9 -15 12 -12 3 3 0 11 -7 18 -10 9 -11 8 -5 -6z"/>
<path d="M1160 2230 c0 -19 3 -21 12 -12 9 9 9 15 0 24 -9 9 -12 7 -12 -12z"/>
<path d="M1032 2213 c3 -26 28 -46 28 -23 0 6 -4 8 -10 5 -5 -3 -10 -2 -10 4
0 5 5 13 10 16 15 10 12 25 -6 25 -11 0 -14 -8 -12 -27z"/>
<path d="M1190 2226 c0 -8 5 -18 10 -21 6 -3 10 3 10 14 0 12 -4 21 -10 21 -5
0 -10 -6 -10 -14z"/>
<path d="M1064 2120 c1 -9 12 -16 26 -17 21 -1 21 -1 3 3 -12 3 -24 11 -26 17
-2 7 -3 5 -3 -3z"/>
<path d="M1048 2075 c2 -14 6 -25 8 -25 2 0 4 11 4 25 0 14 -4 25 -9 25 -4 0
-6 -11 -3 -25z"/>
<path d="M1108 2083 c6 -2 18 -2 25 0 6 3 1 5 -13 5 -14 0 -19 -2 -12 -5z"/>
<path d="M1071 2054 c0 -11 3 -14 6 -6 3 7 2 16 -1 19 -3 4 -6 -2 -5 -13z"/>
<path d="M1181 2054 c0 -11 3 -14 6 -6 3 7 2 16 -1 19 -3 4 -6 -2 -5 -13z"/>
<path d="M1202 2030 c0 -19 2 -27 5 -17 2 9 2 25 0 35 -3 9 -5 1 -5 -18z"/>
<path d="M1162 1980 c0 -19 2 -27 5 -17 2 9 2 25 0 35 -3 9 -5 1 -5 -18z"/>
<path d="M1185 1920 c-4 -6 -3 -16 3 -22 6 -6 12 -6 17 2 4 6 3 16 -3 22 -6 6
-12 6 -17 -2z"/>
<path d="M1040 1910 c0 -5 5 -10 10 -10 6 0 10 5 10 10 0 6 -4 10 -10 10 -5 0
-10 -4 -10 -10z"/>
<path d="M1491 2253 c0 -21 2 -23 7 -11 6 15 8 14 18 -7 11 -22 10 -23 -21
-18 l-33 5 3 -53 c2 -32 -2 -57 -9 -61 -8 -6 -8 -8 1 -8 23 0 63 47 63 74 0
14 5 26 10 26 6 0 10 -8 10 -17 0 -15 2 -16 10 -3 5 9 6 16 0 18 -5 2 -6 10
-3 18 3 8 1 14 -4 14 -6 0 -15 11 -21 25 -15 33 -32 32 -31 -2z"/>
<path d="M1530 2272 c0 -10 41 -45 46 -39 2 2 -7 13 -21 25 -14 12 -25 18 -25
14z"/>
<path d="M1414 2080 c0 -107 2 -151 3 -97 2 53 2 141 0 195 -1 53 -3 9 -3 -98z"/>
<path d="M1472 2250 c0 -14 2 -19 5 -12 2 6 2 18 0 25 -3 6 -5 1 -5 -13z"/>
<path d="M1438 2195 c-4 -16 -1 -25 8 -25 8 0 11 8 9 21 -6 32 -12 33 -17 4z"/>
<path d="M1510 2120 c0 -6 -6 -8 -12 -4 -7 4 -10 4 -6 -1 4 -4 3 -14 -3 -22
-9 -9 -8 -13 0 -13 6 0 11 4 11 9 0 5 9 11 19 13 16 3 17 5 5 16 -9 8 -14 9
-14 2z"/>
<path d="M1515 2080 c-3 -5 -1 -10 4 -10 6 0 11 5 11 10 0 6 -2 10 -4 10 -3 0
-8 -4 -11 -10z"/>
<path d="M1441 1994 c0 -11 3 -14 6 -6 3 7 2 16 -1 19 -3 4 -6 -2 -5 -13z"/>
<path d="M1532 1985 c0 -16 2 -22 5 -12 2 9 2 23 0 30 -3 6 -5 -1 -5 -18z"/>
<path d="M1804 2155 c0 -66 1 -92 3 -57 2 34 2 88 0 120 -2 31 -3 3 -3 -63z"/>
<path d="M1790 1925 c0 -8 4 -15 10 -15 5 0 7 7 4 15 -4 8 -8 15 -10 15 -2 0
-4 -7 -4 -15z"/>
<path d="M1905 1910 c4 -6 11 -8 16 -5 14 9 11 15 -7 15 -8 0 -12 -5 -9 -10z"/>
<path d="M2261 2248 c0 -15 4 -30 9 -33 6 -3 10 -15 10 -26 0 -10 5 -19 10
-19 15 0 12 36 -4 50 -8 6 -17 21 -19 33 -4 18 -5 18 -6 -5z"/>
<path d="M2164 2221 c1 -15 8 -25 18 -27 11 -1 15 3 11 13 -4 11 -8 12 -14 2
-5 -8 -9 -5 -12 12 l-4 24 1 -24z"/>
<path d="M2210 2180 c0 -53 -2 -60 -20 -60 -11 0 -20 5 -20 12 0 6 -2 9 -5 6
-11 -10 7 -37 21 -31 10 4 12 0 7 -13 -4 -12 -3 -15 5 -10 7 4 12 1 12 -8 0
-9 -7 -16 -15 -16 -8 0 -15 -4 -15 -10 0 -5 7 -7 16 -3 13 5 15 -3 13 -51 -3
-65 4 -76 31 -51 30 28 26 125 -5 125 -16 0 -29 35 -20 50 3 5 12 10 20 10 20
0 26 82 7 98 -27 21 -32 14 -32 -48z"/>
<path d="M2181 2144 c0 -11 3 -14 6 -6 3 7 2 16 -1 19 -3 4 -6 -2 -5 -13z"/>
<path d="M2230 2101 c0 -6 5 -13 12 -17 6 -4 8 -3 4 4 -3 5 0 13 6 15 8 3 6 6
-4 6 -10 1 -18 -3 -18 -8z"/>
<path d="M2261 2072 c-1 -7 5 -15 13 -18 8 -3 12 -13 10 -22 -2 -9 -5 -37 -7
-61 -1 -27 -8 -46 -16 -49 -9 -3 -11 0 -6 8 5 8 4 11 -3 7 -5 -4 -8 -16 -5
-27 4 -15 9 -18 18 -10 8 7 14 7 17 1 1 -5 10 -2 18 7 13 14 12 15 -3 9 -9 -3
-17 -2 -17 3 0 6 4 10 9 10 5 0 11 7 14 14 4 10 1 13 -8 10 -9 -4 -12 0 -10
13 13 65 13 93 0 93 -7 0 -16 6 -18 13 -4 9 -6 9 -6 -1z"/>
<path d="M2160 1985 c0 -8 4 -15 10 -15 5 0 7 7 4 15 -4 8 -8 15 -10 15 -2 0
-4 -7 -4 -15z"/>
<path d="M2161 1934 c0 -11 3 -14 6 -6 3 7 2 16 -1 19 -3 4 -6 -2 -5 -13z"/>
<path d="M2184 1926 c-10 -25 0 -38 13 -17 8 13 9 22 3 26 -6 4 -13 -1 -16 -9z"/>
<path d="M2201 1894 c0 -11 3 -14 6 -6 3 7 2 16 -1 19 -3 4 -6 -2 -5 -13z"/>
<path d="M2580 2215 c-8 -10 -12 -49 -11 -122 3 -141 4 -147 29 -151 22 -3 22
-1 22 125 0 89 4 133 13 142 8 10 8 12 0 7 -6 -3 -14 -2 -18 4 -9 14 -20 12
-35 -5z"/>
<path d="M2543 2095 c0 -33 2 -45 4 -27 2 18 2 45 0 60 -2 15 -4 0 -4 -33z"/>
<path d="M2513 2075 c0 -22 2 -30 4 -17 2 12 2 30 0 40 -3 9 -5 -1 -4 -23z"/>
<path d="M2510 1949 c0 -5 5 -7 12 -3 7 5 9 2 6 -8 -4 -8 2 -19 13 -26 15 -10
17 -9 13 3 -4 9 -1 15 7 15 10 0 10 3 1 12 -16 16 -52 21 -52 7z"/>
<path d="M3008 2037 c-5 -10 -8 -38 -8 -62 0 -24 -4 -47 -10 -50 -5 -3 -10
-14 -10 -23 1 -9 10 2 21 26 13 27 19 58 17 85 -2 30 -5 37 -10 24z"/>
<path d="M2907 2022 c-7 -11 10 -89 18 -80 1 2 0 23 -4 48 -4 28 -9 40 -14 32z"/>
<path d="M2885 1950 c-3 -5 -1 -10 4 -10 6 0 11 5 11 10 0 6 -2 10 -4 10 -3 0
-8 -4 -11 -10z"/>
<path d="M2900 1920 c0 -5 5 -10 10 -10 6 0 10 5 10 10 0 6 -4 10 -10 10 -5 0
-10 -4 -10 -10z"/>
<path d="M3017 1923 c-4 -3 -7 -11 -7 -17 0 -6 5 -5 12 2 6 6 9 14 7 17 -3 3
-9 2 -12 -2z"/>
<path d="M3390 2250 c0 -11 2 -20 4 -20 2 0 6 9 9 20 3 11 1 20 -4 20 -5 0 -9
-9 -9 -20z"/>
<path d="M3372 2200 c0 -14 2 -19 5 -12 2 6 2 18 0 25 -3 6 -5 1 -5 -13z"/>
<path d="M3311 2094 c0 -11 3 -14 6 -6 3 7 2 16 -1 19 -3 4 -6 -2 -5 -13z"/>
<path d="M3317 1955 c3 -33 7 -62 9 -64 7 -8 2 63 -7 94 -5 20 -6 9 -2 -30z"/>
<path d="M3664 2259 c-3 -6 -2 -15 4 -21 6 -6 12 -6 17 3 5 8 4 10 -3 5 -7 -4
-12 -2 -12 3 0 19 29 12 40 -10 7 -11 14 -18 17 -15 3 3 1 12 -5 19 -7 8 -9
17 -5 20 3 4 -5 7 -20 7 -14 0 -29 -5 -33 -11z"/>
<path d="M3735 2250 c4 -6 11 -8 16 -5 14 9 11 15 -7 15 -8 0 -12 -5 -9 -10z"/>
<path d="M3638 2231 c21 -18 22 -27 22 -149 0 -131 8 -162 38 -143 9 6 12 44
10 147 -3 136 -4 139 -25 137 -11 -1 -27 4 -33 12 -7 8 -18 15 -24 15 -6 -1
-1 -9 12 -19z"/>
<path d="M3757 2233 c-10 -10 -8 -43 2 -43 5 0 8 11 7 25 0 14 -1 25 -2 25 0
0 -4 -3 -7 -7z"/>
<path d="M3611 2193 l1 -28 8 25 c9 29 17 15 23 -40 3 -30 4 -28 5 11 2 35 -2
48 -14 53 -23 9 -24 8 -23 -21z"/>
<path d="M3751 2024 c0 -11 3 -14 6 -6 3 7 2 16 -1 19 -3 4 -6 -2 -5 -13z"/>
<path d="M3732 1975 c2 -11 -4 -29 -14 -39 -10 -11 -18 -25 -18 -30 0 -6 10 0
21 14 l20 25 -7 -25 c-6 -22 -5 -23 9 -12 13 11 14 19 5 45 -13 38 -22 50 -16
22z"/>
<path d="M4073 2273 c-7 -2 -13 -13 -13 -24 0 -16 3 -17 13 -7 8 7 14 18 14
25 0 7 -1 13 -1 12 -1 0 -7 -3 -13 -6z"/>
<path d="M3978 2233 c7 -3 16 -2 19 1 4 3 -2 6 -13 5 -11 0 -14 -3 -6 -6z"/>
<path d="M4044 1938 c3 -13 5 -25 5 -28 2 -9 21 25 21 38 0 6 -7 12 -15 12
-10 0 -14 -7 -11 -22z"/>
<path d="M4316 1933 c-4 -9 -2 -21 4 -27 7 -7 10 -2 10 17 0 31 -5 34 -14 10z"/>
</g>
</svg>
